Coordinates
version=1
nRows=11
nColumns=63
inDegrees=yes

Units are S.I. units (second, meters, Newtons, ...)
If the header above contains a line with 'inDegrees', this indicates whether rotational values are in degrees (yes) or radians (no).

endheader
time	pelvis_tilt	pelvis_list	pelvis_rotation	pelvis_tx	pelvis_ty	pelvis_tz	hip_flexion_r	hip_adduction_r	hip_rotation_r	knee_angle_r	knee_angle_r_beta	ankle_angle_r	subtalar_angle_r	mtp_angle_r	hip_flexion_l	hip_adduction_l	hip_rotation_l	knee_angle_l	knee_angle_l_beta	ankle_angle_l	subtalar_angle_l	mtp_angle_l	L5_S1_Flex_Ext	L5_S1_Lat_Bending	L5_S1_axial_rotation	L4_L5_Flex_Ext	L4_L5_Lat_Bending	L4_L5_axial_rotation	L3_L4_Flex_Ext	L3_L4_Lat_Bending	L3_L4_axial_rotation	L2_L3_Flex_Ext	L2_L3_Lat_Bending	L2_L3_axial_rotation	L1_L2_Flex_Ext	L1_L2_Lat_Bending	L1_L2_axial_rotation	L1_T12_Flex_Ext	L1_T12_Lat_Bending	L1_T12_axial_rotation	Abs_r3	Abs_r2	Abs_r1	Abs_t1	Abs_t2	neck_flexion	neck_bending	neck_rotation	arm_flex_r	arm_add_r	arm_rot_r	elbow_flex_r	pro_sup_r	wrist_flex_r	wrist_dev_r	arm_flex_l	arm_add_l	arm_rot_l	elbow_flex_l	pro_sup_l	wrist_flex_l	wrist_dev_l
      0.60377358	      8.61993689	     -6.16705541	     96.83773711	      0.38899820	      0.71885370	      0.74927340	     10.58671435	      2.37879682	     -3.11203067	      3.86302653	      0.06742253	     24.09333100	    -12.88908359	      0.00000000	     10.55705246	     -1.34341568	     12.06427819	      3.14883145	      0.05495748	     26.90066169	      1.45009630	      0.00000000	      0.24063197	      0.61506492	     -1.77924815	      0.44687763	      0.81803634	     -1.89045116	      0.39533426	      1.49546884	     -1.89045116	      0.27501828	      1.49546884	     -1.55684213	      0.22345085	      1.25424038	     -1.44563912	      0.13749711	      0.95273556	     -1.33443611	      1.71881008	      6.95773735	     -9.89564443	      0.00000000	      0.00000000	     27.48688586	     -1.11578068	      3.56432022	     15.64897524	     -9.67652880	     72.09572375	     27.37940999	     49.80659867	     -3.88795250	      1.30613853	      4.27329351	     -7.31416752	     35.34950388	     38.85622013	     77.81400377	     -8.00491530	     -4.19722752
      0.62264151	      8.73031169	     -5.99381676	     96.59693707	      0.38956213	      0.71980921	      0.74867600	     10.60505790	      2.53385944	     -3.24377339	      4.29554209	      0.07497135	     23.95305714	    -12.60633806	      0.00000000	     10.37652719	     -1.52312019	     12.03246245	      3.22000072	      0.05619961	     26.95706323	      1.22308981	      0.00000000	      0.22353129	      0.63100871	     -1.83161637	      0.41511996	      0.83924158	     -1.94609239	      0.36723955	      1.53423457	     -1.94609239	      0.25547391	      1.53423457	     -1.60266432	      0.20757115	      1.28675296	     -1.48818830	      0.12772578	      0.97743249	     -1.37371228	      1.59666164	      7.13809671	    -10.18690077	      0.00000000	      0.00000000	     26.94724870	     -0.99189075	      4.89482478	     15.96071595	    -10.28740194	     73.79510172	     27.14721118	     52.69886380	     -4.34644951	      0.24127009	      3.79739065	     -7.92348105	     33.11253452	     38.56759550	     84.94972905	    -11.32473147	     -5.03433976
      0.64150943	      8.77328549	     -5.57726255	     96.33186519	      0.39064643	      0.72140106	      0.74770579	     10.31560610	      2.69328030	     -3.14878755	      4.70507035	      0.08211897	     23.85975235	    -12.53977145	      0.00000000	      9.89288476	     -1.70567157	     11.79367406	      3.25413059	      0.05679529	     26.83862871	      1.15896473	      0.00000000	      0.18499670	      0.62890944	     -1.81771699	      0.34355738	      0.83644955	     -1.93132430	      0.30393108	      1.52913041	     -1.93132430	      0.21143273	      1.52913041	     -1.59050236	      0.17178794	      1.28247213	     -1.47689505	      0.10570712	      0.97418072	     -1.36328774	      1.32141295	      7.11434936	    -10.10959656	      0.00000000	      0.00000000	     26.01678472	     -1.36988960	      5.42529145	     16.22902285	    -10.99250857	     75.29968796	     27.14796591	     55.09785597	     -5.13288442	     -0.40535963	      4.11277384	     -9.07864964	     33.57150847	     37.94473784	     87.81443979	    -13.85532292	     -5.64473860
      0.66037736	      8.77600380	     -5.11932494	     96.13117589	      0.39191460	      0.72311258	      0.74591869	      9.83641965	      2.84020461	     -2.85528901	      4.93289435	      0.08609525	     23.80801496	    -12.56975263	      0.00000000	      9.29859341	     -1.87504231	     11.30244276	      3.25144550	      0.05674843	     26.72682064	      1.57688022	      0.00000000	      0.16351321	      0.61685843	     -1.78636703	      0.30366039	      0.82042171	     -1.89801497	      0.26863586	      1.49982958	     -1.89801497	      0.18687925	      1.49982958	     -1.56307115	      0.15183837	      1.25789771	     -1.45142321	      0.09343145	      0.95551371	     -1.33977527	      1.16795852	      6.97802592	     -9.93523749	      0.00000000	      0.00000000	     24.57736497	     -1.46524845	      6.11100786	     15.80508834	    -11.89007543	     73.69879722	     27.75109649	     61.86707755	     -6.05666780	      0.08972608	      4.62846171	    -10.46149728	     36.05694310	     37.29571159	     88.42402235	    -18.17382823	     -6.05691968
      0.67924528	      8.76434030	     -4.59502076	     95.83321330	      0.39344820	      0.72506484	      0.74379666	      9.20380967	      3.01256227	     -2.52997969	      5.02410295	      0.08768714	     23.78563940	    -12.42456324	      0.00000000	      8.51724596	     -2.05742308	     10.88638657	      3.07781956	      0.05371809	     26.30878905	      1.55564056	      0.00000000	      0.14237982	      0.59716034	     -1.76172820	      0.26441356	      0.79422325	     -1.87183622	      0.23391580	      1.45193565	     -1.87183622	      0.16272589	      1.45193565	     -1.54151218	      0.13221390	      1.21772936	     -1.43140417	      0.08135583	      0.92500136	     -1.32129615	      1.01700480	      6.75519718	     -9.79820375	      0.00000000	      0.00000000	     22.82897101	     -1.70934797	      6.23297833	     16.16520876	    -12.68158999	     76.02611782	     28.09180326	     66.30315181	     -8.29431095	      0.10351266	      4.71746502	    -11.66795072	     36.99989248	     36.88033910	     88.88484470	    -19.88094309	     -5.06652247
      0.69811321	      8.82033879	     -4.18796125	     95.69993698	      0.39453380	      0.72661661	      0.74175307	      8.68937309	      3.20993319	     -2.26080291	      5.08301503	      0.08871535	     23.83808496	    -12.43124003	      0.00000000	      7.96988461	     -2.26516840	     10.15055143	      3.08196902	      0.05379051	     26.16367843	      2.25624556	      0.00000000	      0.12750738	      0.59642511	     -1.68792583	      0.23679395	      0.79324540	     -1.79342119	      0.20948187	      1.45014802	     -1.79342119	      0.14572818	      1.45014802	     -1.47693510	      0.11840335	      1.21623009	     -1.37143974	      0.07285772	      0.92386250	     -1.26594437	      0.91077246	      6.74688017	     -9.38773708	      0.00000000	      0.00000000	     21.59581537	     -1.79944818	      6.81499125	     14.69587486	    -13.87449269	     70.35305408	     29.41767466	     80.31523751	     -9.74384369	      2.08502372	      5.07917376	    -12.68197478	     38.91732357	     36.25047638	     89.01268028	    -21.28315086	     -3.79133925
      0.71698113	      8.93160956	     -3.78450958	     95.53487413	      0.39554615	      0.72816137	      0.73954168	      8.07246777	      3.46263669	     -2.09055706	      4.89576083	      0.08544715	     23.89589673	    -12.10112786	      0.00000000	      7.34612725	     -2.52579832	      9.88102520	      2.95128734	      0.05150968	     25.86400275	      2.24654462	      0.00000000	      0.11659506	      0.60751266	     -1.66102931	      0.21652868	      0.80799184	     -1.76484365	      0.19155402	      1.47710628	     -1.76484365	      0.13325649	      1.47710628	     -1.45340065	      0.10827017	      1.23883981	     -1.34958632	      0.06662242	      0.94103711	     -1.24577199	      0.83282683	      6.87230469	     -9.23814674	      0.00000000	      0.00000000	     20.34280881	     -1.94824914	      7.60156337	     14.46562293	    -14.88592599	     72.29153453	     29.72335658	     82.79340068	    -12.45532415	      2.11948654	      4.87889395	    -13.50948378	     39.45701556	     35.91590008	     89.08881743	    -20.45806201	     -1.20590368
      0.73584906	      8.98162866	     -3.44858372	     95.35327401	      0.39656180	      0.72923481	      0.73769131	      7.56000764	      3.63634201	     -2.04577667	      4.72738429	      0.08250842	     24.12630793	    -11.61774575	      0.00000000	      6.85628750	     -2.70468585	      9.60677199	      2.95788352	      0.05162481	     25.78239440	      2.23171903	      0.00000000	      0.09195324	      0.61429560	     -1.61534617	      0.17076636	      0.81701315	     -1.71630530	      0.15106997	      1.49359833	     -1.71630530	      0.10509335	      1.49359833	     -1.41342789	      0.08538778	      1.25267160	     -1.31246876	      0.05254208	      0.95154389	     -1.21150962	      0.65681278	      6.94903474	     -8.98407077	      0.00000000	      0.00000000	     19.68972902	     -1.91839505	      8.61301493	     13.67384266	    -15.86169480	     72.80967191	     30.00424742	     83.14560436	    -14.59985884	      1.82716095	      4.33160167	    -14.15765736	     38.81925973	     35.86304258	     89.08642284	    -18.03141102	      2.09033879
      0.75471698	      8.99728190	     -3.18408349	     95.11513880	      0.39802041	      0.72991993	      0.73606609	      7.13901580	      3.76403549	     -2.62205106	      4.55251647	      0.07945640	     24.50733022	    -10.21692375	      0.00000000	      6.46349580	     -2.86960650	      9.06364933	      3.01605732	      0.05264013	     25.89206966	      2.49571447	      0.00000000	      0.06692859	      0.60558855	     -1.59205916	      0.12429308	      0.80543277	     -1.69156286	      0.10995698	      1.47242800	     -1.69156286	      0.07649268	      1.47242800	     -1.39305177	      0.06214989	      1.23491617	     -1.29354807	      0.03824299	      0.93805666	     -1.19404437	      0.47806420	      6.85053877	     -8.85455544	      0.00000000	      0.00000000	     19.19483674	     -1.85100241	      9.30114326	     13.07457347	    -16.54823969	     74.49376608	     29.78944787	     78.46312371	    -15.54882440	      0.37060447	      3.05398599	    -14.61037321	     35.95192886	     36.04160832	     89.07897906	    -14.39980030	      5.11414977
      0.77358491	      9.00978326	     -2.94650940	     94.80486526	      0.39950925	      0.73037498	      0.73471784	      6.69101797	      3.90982882	     -2.87270611	      4.20570256	      0.07340336	     24.63498443	     -9.25671492	      0.00000000	      6.08649265	     -3.03337881	      8.43838377	      3.05022741	      0.05323651	     26.08607973	      2.79463652	      0.00000000	      0.04291722	      0.59094409	     -1.50155210	      0.07970157	      0.78595564	     -1.59539910	      0.07050870	      1.43682146	     -1.59539910	      0.04905009	      1.43682146	     -1.31385809	      0.03985293	      1.20505319	     -1.22001108	      0.02452290	      0.91537239	     -1.12616407	      0.30655340	      6.68487773	     -8.35118230	      0.00000000	      0.00000000	     18.68275056	     -2.03062566	      9.22405936	     12.55067311	    -17.28466627	     76.82227405	     29.43361283	     68.91247272	    -15.13699619	     -2.35025833	      2.11687311	    -14.94398225	     34.21752541	     35.54817321	     88.97333320	    -12.45183130	      5.89167541
      0.79245283	      9.00348318	     -2.72246779	     94.48684666	      0.40090165	      0.73070894	      0.73368397	      6.27465156	      4.03043679	     -3.04596334	      3.86080587	      0.06738377	     24.70398130	     -8.48860945	      0.00000000	      5.74347635	     -3.17517484	      7.61071034	      3.10154099	      0.05413210	     26.42525198	      3.46934127	      0.00000000	      0.01901432	      0.57466494	     -1.39342040	      0.03531149	      0.76430437	     -1.48050918	      0.03123862	      1.39724034	     -1.48050918	      0.02173146	      1.39724034	     -1.21924285	      0.01765670	      1.17185675	     -1.13215408	      0.01086478	      0.89015600	     -1.04506530	      0.13581737	      6.50072476	     -7.74978624	      0.00000000	      0.00000000	     18.10691815	     -2.23888072	      9.03329896	     12.26715270	    -18.05673255	     79.50945033	     29.09535378	     57.14032610	    -12.85452948	     -5.09132618	      1.41943652	    -15.25817038	     33.34675186	     34.62963107	     88.81198818	    -12.23628246	      4.35357096
